# xmcd
#
# Track frame offsets: 
#        183
#        20463
#        35515
#        48475
#        65008
#        78618
#        93285
#        110215
#        123458
#        136445
#        152058
#        168133
#        178253
#        191935
#        214010
#        227488
#        243598
#        257595
#        275418
#
# Disc length: 3898 seconds
#
# Revision: 3
# Processed by: cddbd v1.5.2PL0 Copyright (c) Steve Scherf et al.
# Submitted via: ExactAudioCopy v1.2
#
DISCID=150f3813
DTITLE=Tom Astor - Country und Trucker Songs
DYEAR=1983
DGENRE=Country
TTITLE0=Der Feigling des Jahrhunderts
TTITLE1=Ich hab Hunger auf ein Weib
TTITLE2=Wer hat ein Herz das nie bricht
TTITLE3=Angie
TTITLE4=Mann oh Mann
TTITLE5=Take me home country road
TTITLE6=Meine Antwort ist die grosse Autobahn
TTITLE7=Mein Auto kenn schon den Heimweg
TTITLE8=Ein richtiger Mann ist immer unterwegs
TTITLE9=MeinLaster wartet schon
TTITLE10=Ich möcht so gern Dave Dudley hör'n
TTITLE11=Ich bin ein Mann der Straße
TTITLE12=Die Frau mit dem Gurt
TTITLE13=Ich hab noch Zeit
TTITLE14=Joe Einsam
TTITLE15=Mein Brummi
TTITLE16=Ein Mann der Nacht
TTITLE17=Blaue Blume
TTITLE18=Ich steh am Tresen
EXTD=Country und Trucker Songs
EXTT0=
EXTT1=
EXTT2=
EXTT3=
EXTT4=
EXTT5=
EXTT6=
EXTT7=
EXTT8=
EXTT9=
EXTT10=
EXTT11=
EXTT12=
EXTT13=
EXTT14=
EXTT15=
EXTT16=
EXTT17=
EXTT18=
PLAYORDER=
